<svg xmlns="http://www.w3.org/2000/svg" width="250" height="250"><path class="st1" d="M125.012 250a30.724 30.724 0 0 1-15.36-4.115l-81.685-47.16c-9.475-5.502-15.337-15.623-15.36-26.581V77.778a30.787 30.787 0 0 1 15.36-26.582L109.65 4.038a31.193 31.193 0 0 1 30.698 0l81.684 47.158a30.787 30.787 0 0 1 15.36 26.582v94.342c-.023 10.958-5.861 21.103-15.36 26.582l-81.66 47.183A30.906 30.906 0 0 1 125.012 250m0-234.095c-2.584 0-5.12.67-7.37 1.986L35.959 65.026a14.802 14.802 0 0 0-7.37 12.752v94.342c0 5.264 2.824 10.12 7.37 12.753l81.709 47.182a14.934 14.934 0 0 0 14.714 0l81.709-47.182a14.802 14.802 0 0 0 7.369-12.753V77.778c0-5.263-2.823-10.12-7.37-12.752l-81.708-47.159c-2.249-1.292-4.785-1.986-7.369-1.962" fill="#639ab2"/><path class="st1" d="M125.012 193.342c-27.18-.023-49.216-22.06-49.193-49.264.024-22.682 15.529-42.421 37.565-47.805V61.15h-2.847a2.246 2.246 0 0 1-2.25-2.25 2.246 2.246 0 0 1 2.25-2.248h28.95c1.245.023 2.226 1.028 2.202 2.249a2.23 2.23 0 0 1-2.13 2.2l-.072-.023h-9.116a2.835 2.835 0 0 0-2.919 2.751 2.85 2.85 0 0 0 2.752 2.92h6.46v29.477c26.415 6.412 42.637 33.018 36.225 59.433-5.36 22.131-25.147 37.683-47.877 37.683m20.72-103.72v-21.27c5.216-3.422 6.676-10.456 3.23-15.672a11.299 11.299 0 0 0-9.45-5.097H110.56c-6.244 0-11.317 5.073-11.293 11.318 0 3.804 1.914 7.345 5.073 9.427v21.27c-30.124 11.46-45.269 45.125-33.832 75.248 11.437 30.123 45.125 45.245 75.224 33.808 30.1-11.437 45.245-45.125 33.808-75.224-5.886-15.576-18.208-27.898-33.808-33.808" fill="#639ab2"/><path class="st1" d="M125.012 186.189c22.49 0 40.746-18.232 40.746-40.747v-.215c-20.672 7.465-32.085 1.483-38.042-.862a64.506 64.506 0 0 0-28.09-6.292 20.773 20.773 0 0 0-15.289 5.622c-.024.575-.048 1.149-.048 1.723-.024 22.539 18.232 40.77 40.723 40.77" fill="#639ab2"/><path class="st1" d="M163.39 140.729c.167-.048.239-.216.191-.383a.426.426 0 0 0-.167-.192 39.99 39.99 0 0 0-13.734-4.091c-4.044-.072-10.217 1.866-16.7 4.498a.342.342 0 0 0-.168.407.289.289 0 0 0 .167.167c6.389 2.25 16.031 4.235 30.41-.406" fill="#639ab2"/></svg>